<svg width="1000" height="260" viewBox="0 0 1000 260" fill="none" xmlns="http://www.w3.org/2000/svg">
<g clip-path="url(#clip0)">
<path d="M311.74 62.16V77C304.36 65.75 287.39 59.57 274.94 59.11C237.58 57.91 204.1 88.11 204.1 131.51C204.1 174.67 236.29 204.83 275.03 203.73C286.93 203.36 304.08 197.36 311.64 185.83V200.77H351.64V62.16H311.74ZM276.14 166.38C269.081 166.38 262.181 164.287 256.312 160.365C250.443 156.443 245.868 150.869 243.167 144.348C240.465 137.826 239.759 130.65 241.136 123.727C242.513 116.804 245.912 110.445 250.903 105.453C255.895 100.462 262.254 97.0629 269.177 95.6858C276.1 94.3087 283.276 95.0154 289.798 97.7167C296.319 100.418 301.893 104.993 305.815 110.862C309.737 116.731 311.83 123.631 311.83 130.69C311.834 135.378 310.914 140.021 309.121 144.353C307.329 148.685 304.7 152.621 301.385 155.935C298.071 159.25 294.135 161.879 289.803 163.671C285.471 165.463 280.828 166.384 276.14 166.38V166.38ZM0 200.88H40.3V0H0.18L0 200.88ZM192.85 132.44C192.94 89.44 164.26 59.12 122.76 59.12C82.08 59.12 51.56 90.02 51.56 131.43C51.56 174.04 81.62 203.74 124.42 203.74C154.48 203.74 176.71 189.81 188.15 167.3L153.93 153.65C147.57 163.98 139.45 170.35 124.42 170.35C107.42 170.35 92.69 158.64 91.31 142.49H192.31C192.728 139.157 192.908 135.799 192.85 132.44V132.44ZM91.68 116.21C93.34 103.11 106.43 90.85 122.57 90.85C138.99 90.85 151.57 101.45 153.19 116.12C153.1 116.21 91.68 116.21 91.68 116.21ZM448.61 59.12C430.34 59.12 417.8 64.84 407.84 77.01V62.16H367.07V200.78H407.84V123.5C407.84 105.33 418.17 95 433.84 95C449.79 95 458.74 105.33 458.74 123.5V200.78H499.51V115.56C499.52 80.7 480.15 59.12 448.61 59.12ZM651.97 59.12H581.42C542.5 59.12 510.86 91.58 510.86 131.43C510.86 171.28 542.4 203.74 581.42 203.74C620.44 203.74 652 171.36 652 131.43C652.038 118.586 648.7 105.957 642.32 94.81H652L651.97 59.12ZM581.32 166.38C561.96 166.38 546.18 150.43 546.18 130.69C546.18 110.95 562 95 581.32 95C600.64 95 616.46 111 616.46 130.69C616.46 150.38 600.69 166.38 581.32 166.38ZM510.77 219.05L651.88 219.23V259.35L510.77 259.17V219.05ZM770.77 62.16V77C763.4 65.75 746.43 59.57 733.97 59.11C696.62 57.91 663.14 88.11 663.14 131.51C663.14 174.67 695.33 204.83 734.07 203.73C745.96 203.36 763.12 197.36 770.68 185.83V200.77H810.68V62.16H770.77ZM735.07 166.38C728.011 166.38 721.111 164.287 715.242 160.365C709.373 156.443 704.798 150.869 702.097 144.348C699.395 137.826 698.689 130.65 700.066 123.727C701.443 116.804 704.842 110.445 709.833 105.453C714.825 100.462 721.184 97.0629 728.107 95.6858C735.03 94.3087 742.206 95.0154 748.728 97.7167C755.249 100.418 760.824 104.993 764.745 110.862C768.667 116.731 770.76 123.631 770.76 130.69C770.752 140.153 766.989 149.226 760.298 155.918C753.606 162.609 744.533 166.372 735.07 166.38V166.38ZM826.07 62.16V259.35H866.07V185.84C873.63 197.37 890.79 203.37 902.68 203.74C941.42 204.84 973.61 174.68 973.61 131.52C973.61 88.08 940.13 57.92 902.78 59.12C890.33 59.58 873.36 65.76 865.98 77.01V62.16H826.07ZM866 130.69C866 123.631 868.093 116.731 872.015 110.862C875.936 104.993 881.511 100.418 888.032 97.7167C894.554 95.0154 901.73 94.3087 908.653 95.6858C915.576 97.0629 921.935 100.462 926.927 105.453C931.918 110.445 935.317 116.804 936.694 123.727C938.071 130.65 937.365 137.826 934.663 144.348C931.962 150.869 927.388 156.443 921.518 160.365C915.649 164.287 908.749 166.38 901.69 166.38C897.002 166.385 892.358 165.466 888.026 163.674C883.693 161.882 879.757 159.254 876.442 155.938C873.126 152.623 870.498 148.687 868.706 144.354C866.914 140.022 865.995 135.378 866 130.69V130.69Z" fill="#F2F2F2"/>
<path d="M999 73.7701C999.015 75.7003 998.634 77.6131 997.88 79.3901C997.17 81.0878 996.153 82.6404 994.88 83.9701C993.59 85.2768 992.063 86.3255 990.38 87.0601C988.644 87.8119 986.772 88.1998 984.88 88.1998C982.988 88.1998 981.116 87.8119 979.38 87.0601C975.961 85.5688 973.246 82.8187 971.8 79.3801C971.046 77.6031 970.665 75.6903 970.68 73.7601C970.671 71.8239 971.052 69.9057 971.8 68.1201C973.238 64.6709 975.954 61.9117 979.38 60.4201C981.116 59.6682 982.988 59.2803 984.88 59.2803C986.772 59.2803 988.644 59.6682 990.38 60.4201C992.066 61.1582 993.594 62.2141 994.88 63.5301C996.164 64.8586 997.182 66.4198 997.88 68.1301C998.633 69.9142 999.014 71.8334 999 73.7701V73.7701ZM995.84 73.7701C995.847 70.7516 994.703 67.8441 992.64 65.6401C991.645 64.5941 990.457 63.7517 989.14 63.1601C987.784 62.5538 986.316 62.2405 984.83 62.2405C983.345 62.2405 981.876 62.5538 980.52 63.1601C979.207 63.7584 978.02 64.5999 977.02 65.6401C975.469 67.2898 974.422 69.3493 974.004 71.575C973.586 73.8007 973.813 76.0997 974.66 78.2001C975.202 79.5507 975.996 80.786 977 81.84C977.998 82.8824 979.186 83.7242 980.5 84.3201C981.856 84.9263 983.325 85.2396 984.81 85.2396C986.295 85.2396 987.764 84.9263 989.12 84.3201C990.436 83.7268 991.624 82.8847 992.62 81.84C993.63 80.7868 994.437 79.5562 995 78.2101C995.576 76.8009 995.868 75.2922 995.86 73.7701H995.84ZM990.28 71.0801C990.294 71.9753 990.021 72.8515 989.5 73.5801C988.974 74.3233 988.245 74.8995 987.4 75.2401L991.2 80.9601H987.6L984.32 75.7601H983.16V81.0001H980.16V66.5601H985.16C986.5 66.5051 987.817 66.9228 988.88 67.7401C989.359 68.1495 989.736 68.664 989.982 69.2435C990.228 69.8229 990.337 70.4515 990.3 71.0801H990.28ZM987.16 71.1601C987.177 70.8969 987.129 70.6337 987.021 70.3932C986.913 70.1527 986.748 69.9423 986.54 69.7801C986.089 69.4654 985.55 69.3041 985 69.3201H983.16V73.0001H985C985.553 73.0193 986.096 72.85 986.54 72.5201C986.746 72.3597 986.912 72.153 987.023 71.9166C987.134 71.6803 987.188 71.4211 987.18 71.1601H987.16Z" fill="#F2F2F2"/>
</g>
<defs>
<clipPath id="clip0">
<rect width="999.02" height="259.35" fill="white"/>
</clipPath>
</defs>
</svg>
